<?xml version="1.0" encoding="UTF-8"?>
<svg id="Layer_2" data-name="Layer 2" xmlns="http://www.w3.org/2000/svg" viewBox="0 0 196.43 209.83">
  <g id="Layer_1-2" data-name="Layer 1">
    <path d="M82.14,132.57c-2.49,2.57-4.8,5.09-7.24,7.46-4.11,3.99-8.27,7.93-12.48,11.82-1.48,1.37-2.11,2.92-2.23,4.91-.23,3.83,.28,7.77-1.13,11.46-1.4,3.66-3,7.26-4.6,10.84-1.29,2.88-2.74,5.7-4.07,8.56-1.03,2.23-1.35,4.52-.56,6.95,.44,1.34,.6,2.77,.82,4.17,.37,2.3-.09,4.53-.86,6.68-.11,.31-.67,.57-1.06,.64-2.43,.45-4.86,.85-7.3,1.24-.83,.13-1.68,.16-2.54,.24,.06-.49,.11-.92,.17-1.41-5.67,2.98-11.57,3.22-17.61,2.15-.93-.17-2.09-.3-2.28-1.48-.18-1.15,.69-1.89,1.57-2.41,1.74-1.04,3.55-1.95,5.3-2.97,4.55-2.66,8.1-6.37,10.86-10.81,.74-1.19,1.15-2.7,1.29-4.11,.76-7.59,1.39-15.2,2.06-22.8,.41-4.61,.85-9.22,1.19-13.83,.18-2.51,1.27-4.67,2.33-6.85,5.04-10.29,10.69-20.21,17.45-29.49,2.03-2.78,3.75-5.79,5.56-8.72,1.57-2.55,2.16-5.32,1.51-8.29-.71-3.2-1.44-6.39-2.19-9.58-.11-.46-.36-.88-.56-1.37-2.23,1.56-4.38,3.08-6.54,4.57-2.86,1.96-5.84,3.72-9.32,4.24-1.44,.21-3.02,.15-4.42-.22-6.41-1.68-12.38-4.52-18.4-7.23-1.54-.69-3.08-1.39-4.75-2.15-.47,3.1-.91,6.04-1.35,8.99-1.02,6.78-2.05,13.55-3.06,20.33-.86,5.77-1.7,11.55-2.55,17.33-.36,2.45-.66,4.9-1.07,7.34-.46,2.74-1.94,4.89-4.16,6.5-3.78,2.74-9.25,.19-9.84-4.7-.2-1.71,.07-3.57,.51-5.26,4.55-17.56,9.19-35.09,13.82-52.7-.55-.39-1.13-.75-1.65-1.17-1.89-1.55-2.28-3.74-1.15-5.9,.23-.43,.26-.97,.35-1.47,.04-.24-.04-.49,0-.73,.31-1.9,1.37-3.55,1.54-5.56,.11-1.25,1.76-1.85,3.11-2.2,.36-.09,.83-.41,.92-.73,.63-2.14,1.19-4.29,1.73-6.45,.61-2.41,0-4.62-1.4-6.57-.94-1.31-2.05-2.52-3.21-3.65-3.69-3.63-4.81-8-3.35-12.84,3.12-10.34,6.45-20.63,9.73-30.93,.34-1.07,.9-2.08,1.44-3.08,.22-.41,.58-.8,.97-1.06,.9-.61,1.82-.15,1.67,.9-.34,2.36-.76,4.72-1.31,7.03-2.07,8.67-4.21,17.31-6.31,25.97-.1,.41-.2,1.05,.01,1.26,.51,.5,1.17,.98,1.84,1.12,.3,.06,.98-.66,1.12-1.13,1.2-3.91,2.25-7.86,3.47-11.76,1.98-6.29,4.04-12.56,6.13-18.82,.37-1.1,.98-2.14,1.65-3.1,.28-.4,1.06-.77,1.47-.65,.35,.1,.75,.96,.68,1.42-.34,2.07-.77,4.14-1.29,6.17-2.34,9.14-4.74,18.26-7.04,27.41-.18,.71-.03,1.82,.43,2.32,1.15,1.25,2.62,.65,3.12-1.12,2.02-7.13,3.96-14.28,6.09-21.37,1.01-3.37,2.36-6.63,3.6-9.93,.27-.72,.66-1.39,1.06-2.05,.34-.56,.6-1.32,1.54-1.02,.93,.3,.93,1.07,.82,1.8-.23,1.52-.44,3.05-.83,4.54-2.5,9.6-5.04,19.19-7.56,28.78-.31,1.17,.08,1.87,1.22,2.24,1.19,.38,2.02,.03,2.37-1.15,1.95-6.47,3.86-12.96,5.79-19.44,1.23-4.11,2.46-8.23,3.76-12.31,.29-.9,.81-1.78,1.43-2.49,.3-.35,1.16-.5,1.61-.33,.3,.11,.53,.99,.43,1.46-2.3,11.19-4.62,22.37-7,33.54-.36,1.7-.91,3.37-1.53,4.99-1.19,3.14-3.42,5.38-6.4,6.88-.9,.46-1.82,.89-2.74,1.31-3.92,1.78-5.86,4.94-6.4,9.1-.04,.32-.1,.64-.15,.96-.28,1.87-.79,3.62,1.34,5.07,1.55,1.05,2.1,3.1,2.16,5,.04,1.19,.58,1.55,1.53,1.76,3.32,.73,6.63,1.5,9.96,2.17,1.83,.37,3.69,.51,5.53,.85,.89,.17,1.54-.04,2.22-.62,4.08-3.5,7.92-7.23,11.39-11.34,1.67-1.98,3.57-3.77,5.36-5.66,.52-.55,.98-1.14,1.47-1.72-.05-.1-.1-.2-.15-.31-.84,.14-1.68,.29-2.51,.43-3.04,.52-6.02-1.09-6.84-3.6,1.57-.53,3.14-1.03,4.69-1.6,.48-.17,.9-.51,1.46-.84-1.66-.16-3.23-.06-4.64-.5-2.1-.66-4.09-1.67-6.09-2.61-.44-.21-.89-.67-1.05-1.12-.22-.61-.18-1.31-.25-1.98,.57-.03,1.18-.21,1.69-.06,1.21,.36,2.34,.26,3.4-.36,1.99-1.17,3.95-2.38,5.89-3.63,.55-.36,.98-.91,1.74-1.63-2.35-.24-4.34-.44-6.4-.65-.18-1.21,.47-2.13,1.25-2.96,1.91-2.01,4.38-3,6.99-3.72,.9-.25,1.8-.47,2.68-.78,1.78-.63,2.94-1.85,3.72-3.61,.87-1.95,1.82-3.91,3.04-5.65,2.47-3.54,5.78-5.81,10.27-6.18,4.08-.33,8.04-.14,11.72,1.84,3.86,2.07,5.89,5.48,5.82,9.72-.06,3.89,.49,7.53,1.71,11.2,1.39,4.19,.96,8.3-1.69,12.24,5.67-.31,10.33,2.76,15.5,3.99,7.06,1.67,14.18,2,21.26,.64,6.39-1.23,12.68-2.98,19.01-4.51,6.12-1.48,12.31-2.23,18.59-1.56,6.39,.68,12.18,2.93,17.14,7.14,.37,.31,.76,.59,1.34,1.04-1.29,.62-2.27,1.09-3.24,1.55-5.64,2.66-10.24,6.39-12.78,12.28-1.92,4.47-2.4,9.07-1.76,13.92,1.24,9.34-1.89,17.04-11.43,22.31-2.27,1.25-4.61,2.39-6.74,3.84-1.96,1.33-3.39,3.21-4.46,5.38-1.18,2.4-2.46,4.76-3.88,7.02-2.86,4.55-7.26,6.71-12.42,7.44-5.98,.84-11.31-.98-16.16-4.34-2.81-1.95-5.62-3.87-8.86-5.02-1.1-.39-2.29-.54-3.76-.86,2.87,9.43,5.57,18.46,8.4,27.45,.41,1.31,1.26,2.54,2.14,3.62,2.46,3.02,5.11,5.88,6.88,9.41,1.7,3.39,2.3,7.07,3.08,10.7,1.57,7.21,3.26,14.38,6.43,21.1,.97,2.05,2.14,4,3.23,5.99,.8,1.45,1.3,2.97,1.07,4.66-.31,2.19-1.63,3.52-3.68,4.06-3.65,.96-7.33,.81-10.94-.24-1.83-.54-2.43-1.64-2.11-3.55,.12-.71,.28-1.46,.61-2.09,1.02-1.93,.89-3.88,.42-5.91-.74-3.16-1.98-6.09-3.78-8.77-4.91-7.26-9.89-14.48-14.73-21.79-1.4-2.11-2.4-4.49-3.62-6.72-.35-.64-.81-1.22-1.27-1.78-6.38-7.85-12.76-15.7-19.14-23.54-.59-.72-1.17-1.44-1.8-2.23Zm44.66-42.32c-.01,.18-.03,.36-.04,.54-.84,.05-1.68,.05-2.51,.18-.53,.09-1.17,.23-1.52,.59-1.84,1.83-3.6,3.75-5.4,5.62-2.53,2.63-5.08,5.25-7.63,7.86-.56,.57-1.18,.77-2.06,.69-2.54-.25-4.92,.33-7,1.89-1.47,1.1-2.14,2.48-1.62,4.35,.62,2.22,1.84,4.04,3.58,5.53,.82,.7,1.75,.88,2.7,.33,1.26-.73,2.61-1.37,3.69-2.32,5.99-5.25,11.97-10.5,17.81-15.91,2.01-1.86,3.68-4.11,5.35-6.29,1.26-1.65,1.33-3.34,.01-5.22-3.68-5.3-7.11-10.77-10.79-16.07-2.15-3.09-4.48-6.08-6.97-8.91-1.65-1.88-3.95-2.93-6.56-2.54-2.63,.39-5.3,.78-7.84,1.55-3.82,1.17-7.52,2.71-11.5,3.41-5.47,.97-10.31,.12-14.28-4.05-1.4-1.47-2.48-1.77-4.23-.73-1.62,.96-3.18,2.12-4.5,3.46-3.88,3.93-7.59,8.03-11.44,11.99-.84,.87-1.03,1.54-.41,2.6,.53,.92,.81,1.97,1.19,2.97-2.81-1.26-2.81-1.25-5.83-.69-.5,.09-1.06,.11-1.56,.02-4.22-.76-8.45-1.52-12.66-2.34-2.46-.48-4.91-1.05-7.35-1.61-.94-.22-1.29-.72-.93-1.78,.3-.9,.35-1.91,.33-2.87-.03-1.59-.89-2.76-2.28-3.48-1.28-.67-2.34-.07-3.34,.72-.52,.41-1.06,.81-1.91,1.45v-3.76c-1.02-.6-2.19-.34-3.29,.05-.52,.18-.91,.71-1.36,1.08,.46,.32,.91,.67,1.4,.94,.35,.2,.76,.28,1.12,.45,1.13,.54,2.13,1.1,1.92,2.69-.12,.91,.55,1.46,1.4,1.75,1.65,.56,2.78-.3,3.78-1.43,1.71,1.55,1.43,2.56-.87,3.81-.25,1.7-.48,3.28-.72,4.97-.06-.05,0,.02,.06,.05,7.05,3.4,14.2,6.53,21.68,8.88,3.11,.98,6.09,.65,8.88-1.06,1.63-1,3.27-1.98,4.83-3.06,1.59-1.11,3.14-2.3,4.63-3.54,1.04-.86,1.51-1.99,1.41-3.44-.25-3.57,.94-6.69,3.2-9.44,.43-.52,.75-1.15,1.17-1.81,1.09,1.31,.76,2.09,.36,2.85-2.29,4.29-2.37,8.66-.62,13.15,1.34,3.44,2.48,6.94,2.99,10.61,.54,3.81,2.36,6.84,5.31,9.24,.79,.64,1.65,1.2,2.38,1.9,.82,.78,1.59,.66,2.51,.22,5.06-2.46,10.15-4.88,15.21-7.35,.29-.14,.59-.54,.63-.86,.15-1.12,.17-2.27,.28-3.4,.27-2.75,.66-5.46,1.87-8,1.11-2.34,2.08-4.75,3.16-7.11,.36-.78,.46-1.41,.03-2.24-.51-1-.85-2.11-1.1-3.2-.22-.97-.22-2.01,.96-2.79,.13,.21,.22,.39,.34,.55,4.9,6.56,11.1,11.71,17.76,16.35,.92,.64,2.11,.91,3.2,1.26,.97,.31,1.98,.51,2.97,.75Zm-13.61,73.31c-11.6-21.79-27.46-40.5-41.65-60.44-1.52,2.55-2.87,5.04-4.43,7.4-2.86,4.34-5.81,8.61-8.76,12.89-4.8,6.97-8.37,14.63-12.38,22.04-.49,.91-.95,1.96-1.02,2.96-.29,4.49-.45,8.99-.61,13.49-.02,.43,.18,1.02,.49,1.28,2.37,1.95,4.75,3.91,7.24,5.7,.85,.61,2.05,.72,3.08,1.07,1.44-4.82,1.28-9.49,1.35-14.08,.04-2.59,.82-4.51,2.56-6.22,.2-.2,.38-.42,.58-.63,6.31-6.55,12.61-13.12,18.96-19.64,.67-.69,.72-1.21,.35-2-.75-1.61-1.45-3.25-2.15-4.89-.16-.37-.22-.78-.32-1.18,.13-.08,.25-.17,.38-.25,.74,.7,1.57,1.34,2.2,2.12,2.29,2.85,4.49,5.77,6.78,8.62,7.1,8.82,14.22,17.63,21.35,26.43,.97,1.2,1.99,2.37,3.13,3.41,.84,.77,1.9,1.3,2.86,1.94Zm61.88-82c.78-3.57,1.54-7.03,2.32-10.61-4.17-2.78-8.96-4.53-14.08-5.05-5.77-.58-11.58-.82-17.37-1-6.81-.21-13.47-1.17-19.99-3.15-2.37-.72-4.72-1.53-7.35-2.38,.35,.37,.5,.54,.66,.7,3.14,3.02,6.79,5.27,10.78,6.95,6.63,2.78,13.58,4.47,20.61,5.91,4.59,.94,9.18,1.95,13.71,3.15,3.95,1.04,7.46,3.09,10.71,5.47ZM94.57,38.03c-3.49,4.33-7.48,4.62-11.62,.87-.45-.41-.91-.81-1.4-1.17-.49-.35-.99-.72-1.55-.95-1.34-.55-2.41,.19-2.38,1.69-.2-.14-.37-.25-.56-.39-.59,.93-.72,1.95-.09,2.77,.97,1.26,2.14,2.38,3.24,3.54,.38,.4,1.17,.71,1.19,1.1,.12,2.33,.25,4.69,.02,7-.13,1.31-1.06,2.53-.22,3.88-2.19,.74-3.88-.25-5.66-1.11,.1,.71,.23,1.3,.51,1.81,1.48,2.65,3.69,4.48,6.48,5.64,1.36,.57,2.67,.43,3.99-.18,.67-.31,.92-.64,.77-1.38-.31-1.55-.55-3.11-.81-4.67-.35-2.14-.69-4.27-1.03-6.4,1.53,.59,2.93,1.22,4.39,1.68,1.46,.46,2.98,.74,4.47,1.09,.89,.21,1.67,.1,2.25-.72,1.6-2.29,3.31-4.5,4.78-6.87,1.09-1.75,1.34-3.77,1.04-5.86-3.06,2.13-5.33,.12-7.81-1.36Zm34.16,68.94c.14,.35,.19,.52,.28,.66,2.64,3.97,5.66,7.62,9.29,10.73,2.75,2.36,5.72,4.38,9.18,5.6,.83,.29,1.64,.37,2.22-.37,.64-.81,1.15-1.71,1.75-2.62-8.82-2.78-15.97-7.86-22.72-14ZM96.73,23.04c-1.22,2.4-2.8,4.42-5.03,5.76-2.2,1.31-4.53,2.4-6.71,3.55,2,.11,4.24-.16,6.23,.42,2.93,.85,5.27-.24,7.73-1.33,1.96-.88,2.01-.88,1.51-3-.52-2.23-1.57-4.13-3.74-5.38Zm14.02,33.46c-1.59-.74-3.01-1.64-4.56-2.05-1.08-.28-2.54-.26-3.49,.26-3.15,1.73-6.16,3.74-9.2,5.67-.43,.27-.73,.74-1.1,1.12,.05,.05,.1,.1,.15,.15,5.97-1.69,11.94-3.38,18.2-5.15ZM15.48,76.05c-.33,.07-.99,.13-1.58,.36-1.64,.63-1.91,2.11-.48,3.16,1.82,1.34,3.87,1.82,6.06,.88,1.35-.58,1.52-1.57,.47-2.65-1.13-1.17-2.56-1.64-4.47-1.75Zm2.6-1.13c-.29-.79-.49-1.47-.78-2.11-.22-.49-.45-1.16-.87-1.35-.87-.4-1.75-.13-2.38,.65-.72,.88-.5,1.86,.59,2.16,1.11,.31,2.27,.44,3.44,.65ZM91.79,36.89c-1-1.93-2.1-2.25-3.48-1.12-.36,.29-.74,1.11-.58,1.34,.27,.41,.99,.83,1.44,.76,.88-.14,1.7-.62,2.63-.99Zm6.29-1.23l-.03,.58c.71,.28,1.4,.63,2.13,.83,.66,.18,1.44,.28,1.53-.75,.07-.8-.71-1.56-1.57-1.42-.71,.12-1.37,.5-2.06,.77Z"/>
  </g>
</svg>